<?xml version="1.0" encoding="UTF-8"?>
<svg xmlns="http://www.w3.org/2000/svg" viewBox="0 0 175.7 175.7">
  <defs>
    <style>
      .cls-1 {
        fill: #f5ad70;
      }

      .cls-1, .cls-2, .cls-3, .cls-4 {
        stroke-width: 0px;
      }

      .cls-2 {
        fill: #000;
      }

      .cls-3 {
        fill: #9cd7f3;
      }

      .cls-4 {
        fill: #fff;
      }
    </style>
  </defs>
  <g id="Livello_2" data-name="Livello 2">
    <rect class="cls-2" width="175.7" height="175.7"/>
  </g>
  <g id="Livello_1" data-name="Livello 1">
    <path class="cls-3" d="M103.63,95.16c.42.07.83.17,1.23.3-.41-.1-.82-.2-1.23-.3Z"/>
    <g>
      <path class="cls-1" d="M141,39.17c-9.39-8.84-20.94-11.8-33.57-9.04-5.77,1.26-10.22,4.44-13.38,9.08,2.11,1.52,3.51,3.95,3.69,6.76.9-.05,1.83,0,2.76.16,3.05.52,5.65,2.1,7.49,4.3.46-.46.9-1.03,1.34-1.72,2.51-3.94,6.73-4.79,11.22-3.73,4.2.99,7.17,3.48,7.99,7.8.86,4.59-.95,8.44-4.77,11.03-2.1,1.42-4.44,2.69-6.85,3.37-3.88,1.09-7.03,2.81-9.58,5.1-2.57,2.3-4.53,5.17-6,8.52-.76,1.72-1.39,3.58-1.9,5.54-.86,3.29-1.39,5.23-1.17,6.51,2.56-1.17,5.5-1.61,8.48-1.11,2.87.49,5.41,1.78,7.41,3.61.07-.25.14-.51.19-.8,1.64-8.99,7.26-13.8,15.71-15.91,2.07-.52,4.05-1.57,5.93-2.64,13.49-7.64,16.24-26.26,5.01-36.83Z"/>
      <path class="cls-1" d="M107.28,96.91s0,0-.01,0c-.42-.14-.86-.24-1.3-.32-.01,0-.02,0-.03,0-.31-.05-.62-.09-.94-.11-2.51-.17-4.86.62-6.69,2.07.14.14.29.29.43.43,1.95,1.89,2.79,4.18,3.38,6.72.78,3.39,1.65,6.76,2.5,10.13,4.92-.14,9.02-3.99,9.37-9.01.32-4.54-2.55-8.57-6.7-9.9Z"/>
    </g>
    <g>
      <path class="cls-4" d="M87.33,55.7c.76.21,1.56.31,2.38.31,3.75-.01,6.95-2.3,8.33-5.57.47-1.1.73-2.32.72-3.59,0-.21,0-.41-.02-.61-.18-2.82-1.58-5.24-3.69-6.76-1.49-1.08-3.33-1.71-5.35-1.7-5.09.01-9.16,4.02-9.17,9.02,0,4.26,2.88,7.85,6.8,8.9Z"/>
      <path class="cls-4" d="M75.69,90.22c-.12.39-.21.6-.25.83-.78,4.08-1.58,8.16-2.33,12.25-.23,1.25-.81,1.93-2.15,1.97-1.75.05-3.5.2-5.25.32-3.45.25-6.9.49-10.34.81-1.76.16-2.96,1.2-3.62,2.81-1.48,3.59.94,7.16,4.82,6.95,6.15-.34,12.29-.77,18.43-1.23,3.52-.27,6.42-2.78,7.14-6.14.64-3,1.18-6.03,1.78-9.04.14-.69.05-1.23-.5-1.78-2.56-2.52-4.92-5.24-7.73-7.76Z"/>
      <path class="cls-4" d="M63.54,82.88c1.7.72,3.36.25,4.46-1.39,2.04-3.07,4.03-6.17,6.02-9.28.67-1.06,1.53-1.7,2.8-1.95,3.51-.7,7.01-1.49,10.52-2.24,1.06-.22,1.88-.71,2.43-1.42.49-.62.76-1.41.78-2.33.05-2.04-1.53-3.74-3.47-3.81-.27-.01-.54,0-.82.06-4.31.86-8.61,1.76-12.88,2.76-2.09.49-3.73,1.8-4.91,3.61-2.22,3.4-4.43,6.82-6.64,10.23-.31.47-.58.96-.67,1.55-.31,1.87.57,3.42,2.39,4.19Z"/>
      <path class="cls-4" d="M106.7,120.54c-.36-1.49-.73-2.97-1.11-4.45-.85-3.38-1.71-6.74-2.49-10.13-.59-2.53-1.43-4.82-3.38-6.71-.15-.14-.29-.28-.43-.42-1.18-1.15-2.32-2.33-3.45-3.52-1.55-1.61-3.08-3.23-4.66-4.8-.89-.89-1.22-1.58-.49-2.75.41-.65.49-1.52.63-2.31.92-5.15,1.82-10.3,2.74-15.45h-.01c.19-1.09.39-2.16.58-3.24.66-3.68-1.44-7.51-4.9-8.83-.91-.35-1.81-.56-2.7-.65-3.14-.29-6.03,1.01-7.53,3.59.08.02.16.09.23.07,1.9-.38,3.81-.75,5.7-1.15.54-.11,1.05-.16,1.54-.14,2.22.08,3.92,1.45,4.38,3.69.31,1.53-.09,2.91-1.01,3.94h-.01c-.72.8-1.76,1.38-3.04,1.65-3.15.66-6.29,1.33-9.43,2-.66.13-.98.4-1.1,1.17-.56,3.55-1.24,7.07-1.88,10.6-.51,2.83.02,5.37,2.06,7.48,4.63,4.76,9.26,9.5,13.91,14.24.39.4.78.81,1.18,1.21.68.69,1.12,1.48,1.35,2.43.76,3.11,1.52,6.21,2.3,9.32.45,1.8.9,3.59,1.36,5.39.76,3.04,3.1,4.51,6.08,3.84,2.67-.61,4.16-2.91,3.66-5.69-.02-.13-.05-.25-.08-.38Z"/>
      <path class="cls-4" d="M108.31,72.59c-.25.01-.5.04-.76.08-3.08.47-6.18.84-9.24,1.39-1.64.29-3.07.49-3.78-1.52-.39,2.18-.8,4.36-1.18,6.55-.5,2.8-.26,3.04,2.65,2.91.1-.01.19-.01.28-.02,2.01-.3,4.02-.58,6.03-.88,2.48-.36,4.95-.72,7.43-1.11,1.83-.29,2.93-1.76,2.92-3.63,0-2.49-1.69-3.91-4.35-3.77Z"/>
    </g>
  </g>
</svg>