<svg version="1.2" xmlns="http://www.w3.org/2000/svg" viewBox="-46 0 101 100" width="100%" height="100%">
	<title>logo_sito-svg</title>
	<style>
		.s0 { fill: #f5ad70 } 
		.s1 { fill: #ffffff } 
	</style>
	<g id="Layer">
		<path id="Layer" fill-rule="evenodd" class="s0" d="m44.9 10.7c-9.4-8.8-21-11.8-33.6-9-5.8 1.3-10.2 4.4-13.4 9.1 2.1 1.5 3.5 3.9 3.7 6.7q1.4 0 2.8 0.2c3 0.5 5.6 2.1 7.5 4.3q0.6-0.7 1.3-1.7c2.5-4 6.7-4.8 11.2-3.7 4.2 0.9 7.2 3.4 8 7.8 0.9 4.5-0.9 8.4-4.8 11-2.1 1.4-4.4 2.7-6.8 3.4-3.9 1-7 2.8-9.6 5.1-2.6 2.3-4.5 5.1-6 8.5q-1.1 2.6-1.9 5.5c-0.9 3.3-1.4 5.2-1.2 6.5 2.6-1.1 5.5-1.6 8.5-1.1 2.9 0.5 5.4 1.8 7.4 3.6q0.1-0.3 0.2-0.8c1.7-9 7.3-13.8 15.7-15.9 2.1-0.5 4.1-1.6 6-2.6 13.4-7.7 16.2-26.3 5-36.9z"/>
		<path id="Layer" fill-rule="evenodd" class="s0" d="m11.1 68.5q0 0 0 0-0.6-0.2-1.3-0.3 0 0 0 0-0.5-0.1-0.9-0.1c-2.5-0.2-4.9 0.6-6.7 2q0.2 0.2 0.4 0.5c2 1.8 2.8 4.1 3.4 6.7 0.8 3.4 1.6 6.7 2.5 10.1 4.9-0.1 9-4 9.4-9 0.3-4.5-2.6-8.6-6.7-9.9z"/>
	</g>
	<g id="Layer">
		<path id="Layer" fill-rule="evenodd" class="s1" d="m-8.8 27.3q1.1 0.3 2.4 0.3c3.7 0 6.9-2.3 8.3-5.6 0.5-1.1 0.7-2.3 0.7-3.6q0-0.3 0-0.6c-0.2-2.8-1.6-5.2-3.7-6.7-1.5-1.1-3.3-1.8-5.3-1.7-5.1 0-9.2 4-9.2 9 0 4.2 2.9 7.8 6.8 8.9z"/>
		<path id="Layer" fill-rule="evenodd" class="s1" d="m-20.4 61.8c-0.2 0.4-0.3 0.6-0.3 0.8-0.8 4.1-1.6 8.2-2.3 12.3-0.3 1.2-0.8 1.9-2.2 1.9-1.7 0.1-3.5 0.2-5.2 0.4-3.5 0.2-6.9 0.5-10.4 0.8-1.7 0.1-2.9 1.2-3.6 2.8-1.5 3.6 1 7.1 4.8 6.9q9.3-0.5 18.5-1.2c3.5-0.3 6.4-2.8 7.1-6.1 0.6-3 1.2-6.1 1.8-9.1 0.1-0.7 0-1.2-0.5-1.8-2.6-2.5-4.9-5.2-7.7-7.7z"/>
		<path id="Layer" fill-rule="evenodd" class="s1" d="m-32.6 54.5c1.7 0.7 3.4 0.2 4.5-1.4q3-4.6 6-9.3c0.7-1.1 1.5-1.7 2.8-2 3.5-0.7 7-1.5 10.5-2.2q1.6-0.3 2.4-1.4 0.8-1 0.8-2.4c0.1-2-1.5-3.7-3.5-3.8q-0.4 0-0.8 0.1-6.4 1.3-12.9 2.8c-2 0.4-3.7 1.8-4.9 3.6q-3.3 5.1-6.6 10.2c-0.3 0.5-0.6 1-0.7 1.5-0.3 1.9 0.6 3.5 2.4 4.2z"/>
		<path id="Layer" fill-rule="evenodd" class="s1" d="m10.6 92.1q-0.6-2.2-1.1-4.4c-0.9-3.4-1.8-6.8-2.5-10.2-0.6-2.5-1.5-4.8-3.4-6.7q-0.2-0.2-0.4-0.4-1.8-1.7-3.5-3.5c-1.5-1.6-3.1-3.2-4.7-4.8-0.8-0.9-1.2-1.6-0.4-2.8 0.4-0.6 0.4-1.5 0.6-2.3q1.4-7.7 2.7-15.4 0.3-1.7 0.6-3.3c0.7-3.6-1.4-7.5-4.9-8.8q-1.4-0.5-2.7-0.6c-3.1-0.3-6 1-7.5 3.5 0 0.1 0.1 0.1 0.2 0.1q2.9-0.5 5.7-1.1 0.8-0.2 1.5-0.2c2.3 0.1 4 1.5 4.4 3.7 0.3 1.5-0.1 2.9-1 4-0.7 0.8-1.8 1.3-3 1.6q-4.8 1-9.5 2c-0.6 0.1-1 0.4-1.1 1.2-0.5 3.5-1.2 7-1.9 10.6-0.5 2.8 0.1 5.3 2.1 7.5q6.9 7.1 13.9 14.2 0.6 0.6 1.2 1.2c0.7 0.7 1.1 1.5 1.3 2.4q1.2 4.7 2.3 9.4 0.7 2.7 1.4 5.3c0.8 3.1 3.1 4.6 6.1 3.9 2.7-0.6 4.1-2.9 3.6-5.7q0-0.2 0-0.4z"/>
		<path id="Layer" fill-rule="evenodd" class="s1" d="m12.2 44.2q-0.4 0-0.8 0c-3.1 0.5-6.2 0.9-9.2 1.4-1.7 0.3-3.1 0.5-3.8-1.5q-0.6 3.3-1.2 6.6c-0.5 2.8-0.2 3 2.7 2.9q0.1 0 0.2 0 3.1-0.5 6.1-0.9 3.7-0.6 7.4-1.1c1.8-0.3 2.9-1.8 2.9-3.7 0-2.5-1.7-3.9-4.3-3.7z"/>
	</g>
</svg>