<?xml version="1.0" standalone="no"?>
<!DOCTYPE svg PUBLIC "-//W3C//DTD SVG 20010904//EN"
 "http://www.w3.org/TR/2001/REC-SVG-20010904/DTD/svg10.dtd">
<svg version="1.0" xmlns="http://www.w3.org/2000/svg"
 width="808.000000pt" height="808.000000pt" viewBox="0 0 808.000000 808.000000"
 preserveAspectRatio="xMidYMid meet">
<metadata>
Created by potrace 1.14, written by Peter Selinger 2001-2017
</metadata>
<g transform="translate(0.000000,808.000000) scale(0.100000,-0.100000)"
fill="#000000" stroke="none">
<path d="M5167 7984 c-1 -1 -42 -4 -92 -8 -103 -8 -232 -22 -245 -26 -3 -2 -8
-2 -12 -1 -4 0 -39 -6 -78 -14 -38 -8 -82 -17 -97 -20 -86 -16 -154 -33 -230
-59 -39 -13 -74 -22 -77 -18 -3 3 -6 0 -6 -6 0 -7 -7 -12 -15 -12 -8 0 -23 -4
-33 -9 -9 -5 -55 -27 -102 -49 -194 -91 -439 -283 -552 -435 -13 -16 -38 -46
-55 -67 -18 -21 -33 -43 -33 -49 0 -15 1 -15 -94 24 -46 19 -103 38 -127 42
-59 9 -233 9 -289 -1 -56 -10 -158 -44 -187 -64 -13 -8 -23 -11 -23 -8 0 4 -6
2 -12 -4 -7 -5 -38 -27 -68 -47 -61 -40 -138 -117 -181 -179 -54 -78 -128
-262 -112 -278 4 -3 2 -6 -3 -6 -10 0 -10 -209 0 -255 39 -172 107 -292 230
-407 33 -32 64 -58 68 -58 4 0 13 -6 20 -13 14 -13 156 -89 160 -86 2 1 19 -3
38 -9 88 -28 248 -36 340 -17 231 49 419 196 517 405 54 115 69 188 72 347 l1
41 48 -4 c53 -5 107 -12 107 -14 0 -1 11 -3 25 -5 84 -10 301 -101 350 -147
10 -10 22 -18 25 -18 4 0 13 -6 20 -12 8 -7 38 -33 68 -58 30 -25 63 -57 73
-72 16 -21 22 -24 34 -15 17 14 100 123 100 132 0 4 6 12 13 19 6 7 23 28 37
46 35 46 101 107 157 145 50 33 161 82 203 90 86 16 115 19 205 19 90 -1 211
-11 226 -20 3 -2 20 -6 37 -9 61 -10 197 -58 262 -90 66 -33 152 -96 200 -145
90 -93 172 -257 186 -374 3 -22 9 -47 13 -55 14 -28 10 -223 -5 -296 -21 -99
-63 -205 -106 -269 -75 -111 -166 -200 -288 -281 -41 -28 -76 -53 -78 -57 -2
-5 -9 -8 -17 -8 -7 0 -18 -7 -25 -15 -7 -8 -16 -13 -20 -10 -5 3 -12 0 -16 -6
-18 -30 -331 -166 -424 -184 -24 -5 -142 -46 -177 -61 -17 -8 -34 -14 -37 -14
-8 0 -197 -92 -211 -103 -5 -4 -48 -33 -94 -63 -96 -64 -84 -55 -176 -132 -38
-33 -77 -59 -85 -60 -19 -1 -87 -10 -120 -17 -14 -3 -43 -7 -65 -11 -22 -3
-67 -9 -100 -14 -33 -5 -78 -12 -100 -15 -22 -4 -51 -8 -65 -10 -14 -3 -59 -9
-100 -16 -101 -15 -110 -16 -149 -23 -121 -23 -196 0 -242 73 -16 25 -29 43
-30 40 0 -2 -2 -13 -5 -24 -4 -23 -13 -76 -19 -120 -3 -16 -9 -47 -14 -67 -5
-20 -7 -39 -4 -42 3 -2 0 -13 -5 -23 -5 -10 -12 -36 -15 -58 -9 -62 -18 -114
-32 -189 -14 -71 -14 -163 -1 -184 20 -32 64 -42 178 -38 62 2 122 5 133 8 11
3 43 9 70 12 28 4 57 9 65 11 8 2 41 6 72 10 31 3 64 8 72 11 31 12 35 -7 10
-61 -13 -30 -21 -55 -18 -55 4 0 2 -6 -4 -12 -6 -7 -10 -15 -10 -18 -1 -3 -6
-18 -12 -35 -7 -16 -13 -37 -16 -45 -2 -8 -19 -69 -39 -135 -19 -66 -36 -130
-37 -142 -1 -13 -5 -23 -9 -23 -3 0 -6 -6 -7 -12 -1 -15 -7 -47 -28 -137 -22
-91 -24 -102 -28 -164 -5 -76 1 -82 55 -59 55 23 195 61 240 65 19 2 39 6 44
9 18 11 270 6 341 -7 212 -38 389 -118 545 -247 26 -21 49 -38 51 -38 2 0 4 8
5 18 1 9 13 67 28 127 85 360 253 643 500 840 28 22 52 42 55 45 3 3 41 29 85
57 97 61 193 109 300 150 44 17 89 35 100 39 11 4 25 9 30 9 6 1 17 5 25 8 19
8 189 57 215 62 11 2 21 4 23 6 1 1 5 2 10 3 4 1 24 10 46 19 21 9 41 17 44
17 12 0 290 145 351 183 61 37 149 102 211 152 45 37 195 190 241 245 64 76
169 230 169 247 0 7 4 13 9 13 5 0 14 15 22 33 7 17 16 34 19 37 9 7 45 88 79
173 63 161 111 344 127 492 9 78 9 362 0 440 -11 91 -56 301 -70 324 -4 6 -9
22 -12 35 -2 13 -11 37 -19 52 -8 16 -15 32 -15 37 0 34 -156 316 -216 391
-13 17 -28 36 -32 41 -53 74 -161 184 -302 308 -57 50 -170 137 -178 137 -6 0
-12 4 -14 8 -6 15 -162 117 -308 202 -37 22 -220 110 -270 130 -30 12 -68 28
-85 35 -16 7 -61 22 -100 35 -38 12 -77 24 -85 27 -8 3 -19 7 -25 8 -5 0 -17
4 -25 7 -14 6 -133 36 -170 43 -23 4 -104 19 -115 21 -5 1 -12 3 -15 4 -3 1
-18 3 -35 5 -16 1 -50 5 -75 8 -115 15 -196 20 -333 21 -81 1 -149 1 -150 0z"/>
<path d="M2755 5722 c-3 -3 -16 -8 -28 -10 -37 -6 -42 -7 -52 -13 -5 -4 -28
-12 -50 -19 -40 -13 -142 -77 -174 -109 -46 -47 -98 -118 -94 -129 3 -6 10 -9
16 -5 13 8 27 12 67 17 38 5 97 16 175 31 39 8 82 16 98 19 15 3 35 7 45 10 9
3 54 12 99 19 86 15 158 9 218 -17 17 -8 35 -15 40 -17 54 -20 123 -96 158
-173 15 -35 33 -128 31 -166 -6 -103 -46 -194 -114 -257 -51 -48 -173 -98
-290 -120 -14 -2 -45 -9 -70 -14 -62 -15 -76 -17 -145 -29 -33 -6 -73 -15 -90
-20 -16 -5 -43 -11 -60 -14 -16 -2 -30 -5 -30 -6 0 -1 -9 -3 -20 -5 -28 -4
-72 -13 -93 -19 -9 -3 -33 -7 -52 -10 -19 -3 -61 -12 -92 -20 -32 -7 -58 -12
-58 -10 0 2 -11 -6 -25 -17 -22 -20 -33 -49 -41 -104 -2 -19 -6 -42 -20 -117
-3 -18 -7 -47 -9 -64 -4 -32 -35 -206 -60 -329 -13 -66 -18 -92 -30 -167 -3
-18 -8 -41 -11 -50 -25 -84 -37 -252 -23 -334 16 -97 21 -110 59 -189 48 -96
56 -107 190 -245 286 -296 511 -526 825 -845 287 -290 350 -360 375 -410 16
-33 31 -71 34 -85 2 -14 7 -32 10 -40 3 -8 8 -26 10 -40 3 -14 10 -43 16 -65
10 -39 20 -80 24 -100 1 -5 5 -16 9 -22 5 -7 6 -13 3 -13 -2 0 0 -15 5 -32 6
-18 12 -43 15 -56 3 -13 16 -69 30 -125 14 -56 27 -111 30 -122 2 -11 10 -49
19 -85 8 -36 18 -80 21 -98 4 -17 10 -32 13 -32 4 0 7 -8 8 -18 1 -10 9 -47
18 -83 9 -35 19 -72 21 -82 26 -113 74 -260 99 -302 79 -135 212 -206 359
-192 86 9 98 12 169 46 73 35 136 97 167 167 42 90 45 219 10 354 -6 25 -13
53 -15 63 -2 9 -7 22 -10 27 -4 6 -9 27 -11 48 -3 20 -8 46 -11 57 -4 11 -8
23 -9 28 -1 4 -2 8 -3 10 -2 1 -4 13 -6 27 -2 14 -5 31 -7 39 -1 7 4 15 12 16
8 2 29 5 45 8 83 15 244 85 283 124 7 7 16 13 20 13 24 0 202 200 202 227 0 5
9 19 20 31 12 12 19 22 16 22 -3 0 6 25 20 55 23 52 34 91 50 175 3 19 5 76 4
125 -2 124 -4 135 -14 135 -5 0 -7 3 -3 6 9 10 -22 104 -64 189 -158 326 -525
494 -886 405 -48 -12 -92 -26 -98 -31 -5 -5 -17 -9 -27 -9 -10 0 -18 -5 -18
-12 0 -6 -3 -9 -6 -5 -3 3 -27 -8 -52 -24 -25 -16 -50 -29 -54 -29 -5 0 -68
61 -141 136 -72 74 -204 208 -292 298 -195 198 -221 229 -235 272 -12 36 -1
89 27 129 15 23 29 70 38 135 4 24 8 48 11 51 2 4 6 24 9 45 6 40 22 133 29
170 2 12 7 37 10 55 3 19 8 45 11 59 3 14 7 39 10 55 3 17 8 43 11 58 3 16 7
38 9 50 1 12 10 65 19 117 10 52 19 109 22 125 3 17 12 64 20 105 8 41 16 93
19 115 3 22 7 51 10 65 3 14 8 41 11 60 3 19 7 42 9 50 2 8 7 33 10 55 3 23 8
52 10 65 3 14 8 39 10 55 17 97 26 143 31 165 4 14 8 71 9 128 2 78 -2 119
-16 165 -10 34 -19 63 -19 64 -1 2 -10 24 -22 50 -74 167 -228 298 -403 342
-27 7 -59 15 -70 18 -28 8 -273 12 -280 5z"/>
<path d="M2899 5475 c-2 -1 -22 -6 -44 -9 -22 -4 -56 -11 -75 -16 -34 -9 -90
-20 -120 -25 -14 -1 -29 -5 -100 -21 -14 -3 -43 -9 -65 -14 -43 -8 -251 -54
-325 -71 -25 -6 -56 -13 -70 -15 -14 -3 -33 -7 -42 -10 -9 -3 -25 -7 -35 -9
-128 -26 -180 -38 -193 -43 -8 -3 -19 -6 -25 -8 -5 -1 -23 -7 -40 -14 -16 -6
-32 -12 -35 -12 -15 -2 -121 -82 -160 -121 -52 -51 -71 -74 -97 -114 -10 -15
-23 -34 -30 -41 -7 -7 -13 -20 -13 -28 0 -8 -5 -14 -10 -14 -6 0 -14 -10 -19
-22 -5 -13 -34 -61 -65 -106 -31 -46 -56 -85 -56 -87 0 -2 -20 -33 -45 -68
-25 -36 -45 -70 -45 -76 0 -6 -4 -11 -10 -11 -5 0 -10 -6 -10 -12 0 -7 -9 -24
-20 -38 -24 -29 -152 -227 -209 -321 -71 -117 -80 -174 -46 -281 20 -64 77
-131 141 -163 22 -11 42 -24 45 -28 8 -11 72 -20 127 -19 72 1 176 61 217 125
99 155 281 433 285 437 8 8 110 171 110 176 0 3 6 11 13 19 6 7 29 39 49 71
21 33 44 68 50 78 44 68 132 118 250 142 40 8 83 17 96 19 12 3 32 7 45 9 29
6 457 97 480 102 23 5 44 10 92 19 22 5 45 9 50 11 6 1 26 5 45 9 87 16 168
78 211 162 20 41 24 62 24 143 0 80 -4 102 -23 138 -49 91 -140 151 -241 157
-32 2 -60 2 -62 0z"/>
<path d="M2032 3058 c-24 -97 -38 -163 -46 -231 -3 -20 -10 -53 -15 -74 -6
-21 -13 -55 -17 -77 -3 -21 -8 -48 -10 -60 -14 -72 -18 -93 -20 -111 -1 -11
-3 -21 -4 -22 -4 -5 -24 -123 -22 -130 0 -2 -4 -17 -9 -35 -5 -18 -12 -53 -15
-78 -3 -25 -8 -47 -9 -50 -2 -3 -6 -26 -10 -50 -12 -89 -16 -105 -36 -149 -20
-45 -38 -65 -76 -81 -20 -8 -48 -11 -248 -26 -99 -7 -150 -11 -240 -19 -38 -3
-104 -8 -145 -10 -150 -9 -285 -19 -405 -31 -69 -6 -148 -13 -227 -19 -139
-10 -191 -29 -261 -98 -42 -42 -94 -126 -102 -166 -1 -9 -8 -34 -13 -56 -22
-85 4 -225 55 -293 88 -118 184 -164 343 -165 109 -1 277 10 291 18 5 4 9 1 9
-5 0 -6 4 -9 9 -5 11 6 66 11 236 20 61 3 137 8 170 10 33 3 94 7 135 10 113
7 355 24 440 30 30 3 93 7 140 11 86 6 135 11 135 14 0 1 11 3 24 6 47 9 157
58 212 95 79 53 189 173 189 205 0 7 5 14 10 16 11 3 56 125 64 176 4 17 8 46
11 64 3 17 8 34 10 38 2 3 7 29 11 56 3 27 8 52 10 55 2 3 6 21 9 40 5 27 40
210 61 312 2 10 5 26 8 35 5 18 17 100 20 142 5 65 -21 96 -444 518 -96 96
-184 183 -196 194 l-21 19 -11 -43z"/>
</g>
</svg>
